.
 
http://www.scenetime.com    -  Hottest private tracker on the net. !!!

New release on http://www.scenetime.com

        Seed back for speed


...................................NFO:.................................................[IMG]http://i.imgur.com/Wvkhz.jpg[/IMG]

Release Name: D4.2010.DVDScr-PA
     
     
    Release Date: 12/01/2012
     
     
    IMdb: http://www.imdb.com/title/tt1240540/
     
    Rating: 6.2 imdb
     
    Language: English
     
    Type: DVDScr
     
    Format: XViD avi
     
    Size: 740MB
     
    Source: Own -- many thanks to our friend of PA ;)
   
 
    PLOT:
        D4 follows a team of special ops mercenaries on a mission to rescue a kidnapped kid believed to be held in an abandoned government facility...
 
[IMG]http://i.imgur.com/szCft.png[/IMG]
[IMG]http://i.imgur.com/cRIcO.png[/IMG]
[IMG]http://i.imgur.com/vTPqA.png[/IMG]
[/IMG]http://i.imgur.com/oM5Xz.png[/IMG]

General
Complete name                            : D4.2010.DVDScr-PA.avi
Format                                   : AVI
Format/Info                              : Audio Video Interleave
File size                                : 749 MiB
Duration                                 : 1h 38mn
Overall bit rate                         : 1 058 Kbps
Writing application                      : FairUse Wizard - http://fairusewizard.com
Writing library                          : The best and REALLY easy backup tool

Video
ID                                       : 0
Format                                   : MPEG-4 Visual
Format profile                           : Simple@L3
Format settings, BVOP                    : No
Format settings, QPel                    : No
Format settings, GMC                     : No warppoints
Format settings, Matrix                  : Default (H.263)
Codec ID                                 : XVID
Codec ID/Hint                            : XviD
Duration                                 : 1h 38mn
Bit rate                                 : 918 Kbps
Width                                    : 536 pixels
Height                                   : 296 pixels
Display aspect ratio                     : 16:9
Frame rate                               : 29.970 fps
Color space                              : YUV
Chroma subsampling                       : 4:2:0
Bit depth                                : 8 bits
Scan type                                : Progressive
Compression mode                         : Lossy
Bits/(Pixel*Frame)                       : 0.193
Stream size                              : 650 MiB (87%)
Writing library                          : XviD 1.2.1 (UTC 2008-12-04)

Audio
ID                                       : 1
Format                                   : MPEG Audio
Format version                           : Version 1
Format profile                           : Layer 3
Mode                                     : Joint stereo
Mode extension                           : MS Stereo
Codec ID                                 : 55
Codec ID/Hint                            : MP3
Duration                                 : 1h 38mn
Bit rate mode                            : Constant
Bit rate                                 : 128 Kbps
Channel(s)                               : 2 channels
Sampling rate                            : 48.0 KHz
Compression mode                         : Lossy
Stream size                              : 90.6 MiB (12%)
Alignment                                : Aligned on interleaves
Interleave, duration                     : 33 ms (1.00 video frame)
Interleave, preload duration             : 504 ms
Writing library                          : LAME3.97
Encoding settings                        : -m j -V 4 -q 2 -lowpass 17 -b 128
 
    NOTES:
    Another unreleased DVDScr for your viewing pleasure...
    ...looks a decent action/sci-fi movie :)
 
Fuck You WarrLord.Don't risk other person job Assholes , and fuck you again to
leak our internal movie: Double,Newlyweds AND D4.This is the real source file and thanks to all p2p grps
 
    ...feel free to download it, or dont bother    ...your call innit
     
     
    As always - big respect to all the loyal PA crew in 2012, you know who u are...  ;)
         
     
    LOOKING FOR:
    ...More Fresh Stuff for 2012
         
     
     
       Enjoy.......!! :)